<svg xmlns="http://www.w3.org/2000/svg" id="Layer_1" data-name="Layer 1" viewBox="0 0 200 200" width="100%" height="100%"  xmlns:xlink="http://www.w3.org/1999/xlink"><rect id="svgEditorBackground" x="0" y="0" width="200" height="200" style="fill:none;stroke:none;"/><defs><style>.cls-1{fill:#fff;}</style></defs><title>Artboard 1</title><path id="absa-circle" class="cls-1" d="M181.42,70.36a87.07,87.07,0,0,1,0,59.27999999999999l11.629999999999995,4.240000000000009a99.43,99.43,0,0,0,0,-67.76ZM10.26,141.86a99,99,0,0,0,179.48,0l-11.219999999999999,-5.22999999999999a86.65,86.65,0,0,1,-157,0ZM18.58,70.36000000000001l-11.579999999999998,-4.240000000000009a99.43,99.43,0,0,0,0,67.75999999999999l11.630000000000003,-4.240000000000009a86.92,86.92,0,0,1,0,-59.28M189.74,58.14a99,99,0,0,0,-179.48,0l11.219999999999999,5.230000000000004a86.65,86.65,0,0,1,157,0Z" style="fill:red;"/><path class="cls-1" d="M81,111a23.71,23.71,0,0,1,-5.780000000000001,-0.75v-20.439999999999998a25,25,0,0,1,5.780000000000001,-0.7600000000000051c5.6200000000000045,0,8.319999999999993,2.549999999999997,8.319999999999993,11s-2.700000000000003,11,-8.319999999999993,11M82.68,80.2a36.93,36.93,0,0,0,-7.430000000000007,0.9300000000000068v-20.73000000000001l-10.349999999999994,1.1200000000000045v55.660000000000004a52.5,52.5,0,0,0,15.299999999999997,2.6299999999999955c12.450000000000003,0,19.799999999999997,-4.210000000000008,19.799999999999997,-19.810000000000002s-7.349999999999994,-19.799999999999997,-17.319999999999993,-19.799999999999997" style="fill:red;"/><path class="cls-1" d="M122.7,95.42c-4.429999999999993,-0.06999999999999318,-7.209999999999994,-0.15000000000000568,-7.209999999999994,-2.549999999999997c0,-3.1500000000000057,1.8799999999999955,-3.819999999999993,7.579999999999998,-3.819999999999993a55.92,55.92,0,0,1,11.41000000000001,1.4200000000000017l-0.8300000000000125,-8.549999999999997a42.53,42.53,0,0,0,-11.329999999999998,-1.730000000000004c-12.450000000000003,0,-17.25,4.510000000000005,-17.25,13c0,8.179999999999993,5,10.280000000000001,13.5,10.429999999999993c5.480000000000004,0.0799999999999983,8.329999999999998,-0.06999999999999318,8.329999999999998,3.530000000000001c0,3.1500000000000057,-2.480000000000004,3.819999999999993,-7.799999999999997,3.819999999999993a42.9,42.9,0,0,1,-13.209999999999994,-1.8700000000000045l0.8299999999999983,8.549999999999997a36.14,36.14,0,0,0,13.200000000000003,2.180000000000007c13.280000000000001,0,17.409999999999997,-4.510000000000005,17.409999999999997,-12.61c0,-10.200000000000003,-6.680000000000007,-11.629999999999995,-14.629999999999995,-11.780000000000001" style="fill:red;"/><path class="cls-1" d="M47.58,110.65a29.88,29.88,0,0,1,-5,0.5300000000000011c-4.5,0,-6.369999999999997,-1.4300000000000068,-6.369999999999997,-4.5c0,-3.230000000000004,1.7999999999999972,-3.75,5.549999999999997,-4l5.850000000000001,-0.37000000000000455ZM41.13,80.19a43,43,0,0,0,-11.71,1.730000000000004l-0.8200000000000003,8.549999999999997a60,60,0,0,1,11.399999999999999,-1.4200000000000017c5.399999999999999,0,7.579999999999998,0.45000000000000284,7.579999999999998,4.799999999999997v1.2000000000000028l-7.200000000000003,0.37000000000000455c-8,0.45000000000000284,-14.630000000000003,1.7999999999999972,-14.630000000000003,11.780000000000001c0,8.099999999999994,4.120000000000001,12.61,16.58,12.61a52.89,52.89,0,0,0,15.600000000000001,-2.6299999999999955v-24c0,-8.469999999999999,-4.719999999999999,-13,-16.799999999999997,-13" style="fill:red;"/><path class="cls-1" d="M163.9,110.65a29.88,29.88,0,0,1,-5,0.5300000000000011c-4.5,0,-6.3799999999999955,-1.4300000000000068,-6.3799999999999955,-4.5c0,-3.230000000000004,1.8100000000000023,-3.75,5.560000000000002,-4l5.849999999999994,-0.37000000000000455ZM157.45000000000002,80.19a43,43,0,0,0,-11.710000000000008,1.730000000000004l-0.8199999999999932,8.549999999999997a59.94,59.94,0,0,1,11.400000000000006,-1.4200000000000017c5.400000000000006,0,7.5800000000000125,0.45000000000000284,7.5800000000000125,4.799999999999997v1.2000000000000028l-7.199999999999989,0.37000000000000455c-8,0.45000000000000284,-14.629999999999995,1.5799999999999983,-14.629999999999995,11.780000000000001c0,8.099999999999994,4.1200000000000045,12.61,16.579999999999984,12.61a52.89,52.89,0,0,0,15.599999999999994,-2.6299999999999955v-24c0,-8.469999999999999,-4.72999999999999,-13,-16.80000000000001,-13" style="fill:red;"/></svg>